
<svg viewBox="0 0 900 620" xmlns="http://www.w3.org/2000/svg" font-family="'Courier New', monospace">

  <!-- Background -->
  <rect width="900" height="620" fill="#0d1117"/>

  <!-- Title Bar -->
  <rect x="0" y="0" width="900" height="44" fill="#161b22"/>
  <text x="20" y="16" fill="#ff4444" font-size="9" font-weight="bold" letter-spacing="3">WORKSTREAM A · A.5 ARCHITECTURE PROPOSAL</text>
  <text x="20" y="32" fill="#e6edf3" font-size="13" font-weight="bold" letter-spacing="1">MERIDIAN FINSERVE — CURRENT STATE (AS-IS) · VULNERABLE</text>
  <rect x="750" y="8" width="130" height="28" rx="3" fill="#ff444422" stroke="#ff4444" stroke-width="1"/>
  <text x="815" y="26" fill="#ff4444" font-size="10" font-weight="bold" text-anchor="middle">⚠ BEFORE</text>

  <!-- INTERNET ZONE -->
  <rect x="20" y="56" width="200" height="200" rx="4" fill="#161b22" stroke="#ff4444" stroke-width="1.5" stroke-dasharray="6,3"/>
  <text x="120" y="74" fill="#ff4444" font-size="9" font-weight="bold" text-anchor="middle" letter-spacing="2">INTERNET / THREAT ACTORS</text>

  <!-- C2 Servers -->
  <rect x="32" y="82" width="176" height="22" rx="3" fill="#ff444422" stroke="#ff4444" stroke-width="1"/>
  <text x="120" y="97" fill="#ff6666" font-size="9" text-anchor="middle">C2: 192.236.155.230 (Trickbot)</text>

  <rect x="32" y="110" width="176" height="22" rx="3" fill="#ff444422" stroke="#ff4444" stroke-width="1"/>
  <text x="120" y="125" fill="#ff6666" font-size="9" text-anchor="middle">C2: 45.229.71.211 (Cobalt Strike)</text>

  <rect x="32" y="138" width="176" height="22" rx="3" fill="#ff444422" stroke="#ff4444" stroke-width="1"/>
  <text x="120" y="153" fill="#ff6666" font-size="9" text-anchor="middle">C2: 37.228.70.134 (Cobalt Strike)</text>

  <rect x="32" y="166" width="176" height="22" rx="3" fill="#ff444422" stroke="#ff4444" stroke-width="1"/>
  <text x="120" y="181" fill="#ff6666" font-size="9" text-anchor="middle">C2: antivirusupdaty.com / 5.199.162.3</text>

  <rect x="32" y="194" width="176" height="22" rx="3" fill="#ff444422" stroke="#ff4444" stroke-width="1"/>
  <text x="120" y="209" fill="#ff6666" font-size="9" text-anchor="middle">C2: 78.186.110.14:447 (Exfil)</text>

  <rect x="32" y="222" width="176" height="22" rx="3" fill="#ff444422" stroke="#ff4444" stroke-width="1"/>
  <text x="120" y="237" fill="#ff6666" font-size="9" text-anchor="middle">Gtag C2: 36.95.27.243 / 103.102.220.50</text>

  <!-- NO FIREWALL LABEL -->
  <rect x="224" y="100" width="90" height="36" rx="3" fill="#ff222211" stroke="#ff4444" stroke-width="1.5" stroke-dasharray="4,2"/>
  <text x="269" y="116" fill="#ff4444" font-size="8" font-weight="bold" text-anchor="middle">NO EGRESS</text>
  <text x="269" y="128" fill="#ff4444" font-size="8" font-weight="bold" text-anchor="middle">FILTER</text>

  <!-- Arrows Internet to Perimeter - all red/bidirectional -->
  <line x1="220" y1="93" x2="314" y2="160" stroke="#ff4444" stroke-width="1.5" stroke-dasharray="5,3" marker-end="url(#arrowRed)"/>
  <line x1="220" y1="121" x2="314" y2="170" stroke="#ff4444" stroke-width="1.5" stroke-dasharray="5,3" marker-end="url(#arrowRed)"/>
  <line x1="220" y1="149" x2="314" y2="180" stroke="#ff4444" stroke-width="1.5" stroke-dasharray="5,3" marker-end="url(#arrowRed)"/>
  <line x1="220" y1="177" x2="314" y2="190" stroke="#ff4444" stroke-width="1.5" stroke-dasharray="5,3" marker-end="url(#arrowRed)"/>
  <line x1="220" y1="205" x2="314" y2="200" stroke="#ff4444" stroke-width="1.5" stroke-dasharray="5,3" marker-end="url(#arrowRed)"/>

  <!-- PERIMETER ZONE - weak/no real firewall -->
  <rect x="314" y="56" width="230" height="390" rx="4" fill="#161b22" stroke="#f0a500" stroke-width="1.5" stroke-dasharray="6,3"/>
  <text x="429" y="74" fill="#f0a500" font-size="9" font-weight="bold" text-anchor="middle" letter-spacing="2">PERIMETER · NO REAL SEGMENTATION</text>

  <!-- Basic Router/Firewall - broken -->
  <rect x="334" y="82" width="190" height="34" rx="3" fill="#f0a50011" stroke="#f0a500" stroke-width="1" stroke-dasharray="4,2"/>
  <text x="429" y="97" fill="#f0a500" font-size="9" text-anchor="middle">Basic Firewall / Router</text>
  <text x="429" y="110" fill="#f0a50088" font-size="8" text-anchor="middle">Port 80, 443, 447 — ALL OPEN OUTBOUND</text>

  <!-- No DNS Firewall note -->
  <rect x="334" y="122" width="190" height="22" rx="3" fill="#ff222211" stroke="#ff4444" stroke-width="1" stroke-dasharray="3,2"/>
  <text x="429" y="137" fill="#ff6666" font-size="8" text-anchor="middle">✗ No DNS Firewall — C2 domains resolve freely</text>

  <!-- No WAF -->
  <rect x="334" y="150" width="190" height="22" rx="3" fill="#ff222211" stroke="#ff4444" stroke-width="1" stroke-dasharray="3,2"/>
  <text x="429" y="165" fill="#ff6666" font-size="8" text-anchor="middle">✗ No WAF — Portal exposed directly</text>

  <!-- Internal Network -->
  <rect x="334" y="182" width="190" height="250" rx="3" fill="#0d111799" stroke="#f0a500" stroke-width="1" stroke-dasharray="4,2"/>
  <text x="429" y="197" fill="#f0a500" font-size="8" font-weight="bold" text-anchor="middle">INTERNAL LAN · 10.5.26.0/24</text>
  <text x="429" y="208" fill="#ff444466" font-size="7" text-anchor="middle">NO EAST-WEST SEGMENTATION</text>

  <!-- DC - compromised -->
  <rect x="344" y="214" width="170" height="38" rx="3" fill="#ff222233" stroke="#ff4444" stroke-width="2"/>
  <text x="429" y="229" fill="#ff6666" font-size="9" font-weight="bold" text-anchor="middle">⚠ VICTORYPUNK-DC</text>
  <text x="429" y="242" fill="#ff6666" font-size="8" text-anchor="middle">10.5.26.4 · COMPROMISED</text>

  <!-- Infected Workstation -->
  <rect x="344" y="260" width="170" height="34" rx="3" fill="#ff222233" stroke="#ff4444" stroke-width="1.5"/>
  <text x="429" y="274" fill="#ff6666" font-size="9" font-weight="bold" text-anchor="middle">⚠ DESKTOP-OG16DGY</text>
  <text x="429" y="286" fill="#ff6666" font-size="8" text-anchor="middle">10.5.26.132 · PATIENT ZERO</text>

  <!-- Other workstations -->
  <rect x="344" y="302" width="80" height="28" rx="3" fill="#1c2128" stroke="#8b949e" stroke-width="1"/>
  <text x="384" y="314" fill="#8b949e" font-size="7" text-anchor="middle">DESKTOP-.130</text>
  <text x="384" y="324" fill="#8b949e" font-size="7" text-anchor="middle">10.5.26.130</text>

  <rect x="434" y="302" width="80" height="28" rx="3" fill="#1c2128" stroke="#8b949e" stroke-width="1"/>
  <text x="474" y="314" fill="#8b949e" font-size="7" text-anchor="middle">DESKTOP-.134</text>
  <text x="474" y="324" fill="#8b949e" font-size="7" text-anchor="middle">10.5.26.134</text>

  <rect x="344" y="338" width="80" height="28" rx="3" fill="#1c2128" stroke="#8b949e" stroke-width="1"/>
  <text x="384" y="350" fill="#8b949e" font-size="7" text-anchor="middle">DESKTOP-.136</text>
  <text x="384" y="360" fill="#8b949e" font-size="7" text-anchor="middle">10.5.26.136</text>

  <rect x="434" y="338" width="80" height="28" rx="3" fill="#1c2128" stroke="#8b949e" stroke-width="1"/>
  <text x="474" y="350" fill="#8b949e" font-size="7" text-anchor="middle">DESKTOP-.138</text>
  <text x="474" y="360" fill="#8b949e" font-size="7" text-anchor="middle">10.5.26.138</text>

  <rect x="389" y="374" width="80" height="28" rx="3" fill="#1c2128" stroke="#8b949e" stroke-width="1"/>
  <text x="429" y="386" fill="#8b949e" font-size="7" text-anchor="middle">DESKTOP-.140</text>
  <text x="429" y="396" fill="#8b949e" font-size="7" text-anchor="middle">10.5.26.140</text>

  <!-- SMB lateral movement arrows - red -->
  <line x1="429" y1="252" x2="384" y2="302" stroke="#ff4444" stroke-width="1.2" stroke-dasharray="4,2" marker-end="url(#arrowRed)"/>
  <line x1="429" y1="252" x2="474" y2="302" stroke="#ff4444" stroke-width="1.2" stroke-dasharray="4,2" marker-end="url(#arrowRed)"/>
  <line x1="429" y1="252" x2="384" y2="338" stroke="#ff4444" stroke-width="1.2" stroke-dasharray="4,2" marker-end="url(#arrowRed)"/>
  <line x1="429" y1="252" x2="474" y2="338" stroke="#ff4444" stroke-width="1.2" stroke-dasharray="4,2" marker-end="url(#arrowRed)"/>
  <line x1="429" y1="252" x2="429" y2="374" stroke="#ff4444" stroke-width="1.2" stroke-dasharray="4,2" marker-end="url(#arrowRed)"/>
  <text x="510" y="320" fill="#ff4444" font-size="7" text-anchor="middle">SMB</text>
  <text x="510" y="330" fill="#ff4444" font-size="7" text-anchor="middle">Lateral</text>
  <text x="510" y="340" fill="#ff4444" font-size="7" text-anchor="middle">Movement</text>

  <!-- No monitoring label -->
  <rect x="334" y="408" width="190" height="22" rx="3" fill="#ff222211" stroke="#ff4444" stroke-width="1" stroke-dasharray="3,2"/>
  <text x="429" y="422" fill="#ff6666" font-size="8" text-anchor="middle">✗ No NDR / No SIEM Alerting</text>

  <!-- Portals -->
  <rect x="314" y="456" width="230" height="56" rx="4" fill="#161b22" stroke="#f0a500" stroke-width="1" stroke-dasharray="5,3"/>
  <text x="429" y="472" fill="#f0a500" font-size="8" font-weight="bold" text-anchor="middle">CUSTOMER &amp; PARTNER PORTALS</text>
  <rect x="324" y="478" width="100" height="22" rx="3" fill="#ff222211" stroke="#ff4444" stroke-width="1" stroke-dasharray="3,2"/>
  <text x="374" y="494" fill="#ff6666" font-size="7" text-anchor="middle">SQLi Vulnerable</text>
  <rect x="434" y="478" width="100" height="22" rx="3" fill="#ff222211" stroke="#ff4444" stroke-width="1" stroke-dasharray="3,2"/>
  <text x="484" y="494" fill="#ff6666" font-size="7" text-anchor="middle">IDOR Exposed</text>

  <!-- Data Center -->
  <rect x="560" y="56" width="180" height="130" rx="4" fill="#161b22" stroke="#8b949e" stroke-width="1.5" stroke-dasharray="5,3"/>
  <text x="650" y="74" fill="#8b949e" font-size="9" font-weight="bold" text-anchor="middle" letter-spacing="2">CO-LOCATED DC</text>

  <rect x="572" y="82" width="156" height="28" rx="3" fill="#1c2128" stroke="#8b949e" stroke-width="1"/>
  <text x="650" y="95" fill="#c9d1d9" font-size="8" text-anchor="middle">App Servers</text>
  <text x="650" y="107" fill="#8b949e" font-size="7" text-anchor="middle">No at-rest encryption</text>

  <rect x="572" y="116" width="156" height="28" rx="3" fill="#1c2128" stroke="#8b949e" stroke-width="1"/>
  <text x="650" y="129" fill="#c9d1d9" font-size="8" text-anchor="middle">Database Servers</text>
  <text x="650" y="141" fill="#8b949e" font-size="7" text-anchor="middle">180K borrower records</text>

  <rect x="572" y="150" width="156" height="22" rx="3" fill="#ff222211" stroke="#ff4444" stroke-width="1" stroke-dasharray="3,2"/>
  <text x="650" y="165" fill="#ff6666" font-size="7" text-anchor="middle">✗ No key separation / tokenisation</text>

  <!-- Cloud footprint -->
  <rect x="560" y="200" width="180" height="60" rx="4" fill="#161b22" stroke="#8b949e" stroke-width="1.5" stroke-dasharray="5,3"/>
  <text x="650" y="218" fill="#8b949e" font-size="9" font-weight="bold" text-anchor="middle" letter-spacing="2">PUBLIC CLOUD</text>
  <rect x="572" y="226" width="156" height="22" rx="3" fill="#ff222211" stroke="#ff4444" stroke-width="1" stroke-dasharray="3,2"/>
  <text x="650" y="242" fill="#ff6666" font-size="7" text-anchor="middle">✗ No egress controls on cloud workloads</text>

  <!-- Connection lines -->
  <line x1="544" y1="170" x2="560" y2="120" stroke="#8b949e" stroke-width="1" stroke-dasharray="4,2"/>
  <line x1="544" y1="230" x2="560" y2="230" stroke="#8b949e" stroke-width="1" stroke-dasharray="4,2"/>

  <!-- Attack flow annotations -->
  <rect x="20" y="270" width="285" height="148" rx="4" fill="#161b22" stroke="#ff4444" stroke-width="1.5"/>
  <text x="162" y="287" fill="#ff4444" font-size="9" font-weight="bold" text-anchor="middle" letter-spacing="2">OBSERVED ATTACK CHAIN</text>

  <text x="30" y="304" fill="#ff6666" font-size="8">① Trickbot infection → DESKTOP-OG16DGY (10.5.26.132)</text>
  <text x="30" y="318" fill="#ff6666" font-size="8">② Public IP recon: api.ip.sb, ipify.org, ipinfo.io</text>
  <text x="30" y="332" fill="#ff6666" font-size="8">③ C2 beacon: 192.236.155.230:80 (WinHTTP loader/1.0)</text>
  <text x="30" y="346" fill="#ff6666" font-size="8">④ Trickbot gtag rob87 POST → 36.95.27.243:443</text>
  <text x="30" y="360" fill="#ff6666" font-size="8">⑤ DC compromise via DCERPC/svcctl + Kerberos</text>
  <text x="30" y="374" fill="#ff6666" font-size="8">⑥ Cobalt Strike beacon → 45.229.71.211 (~207s)</text>
  <text x="30" y="388" fill="#ff6666" font-size="8">⑦ SMB lateral: DC → 5 workstations</text>
  <text x="30" y="402" fill="#ff6666" font-size="8">⑧ CS C2 (antivirusupdaty.com) data exfil via port 447</text>

  <!-- Key Gaps Summary -->
  <rect x="20" y="430" width="285" height="130" rx="4" fill="#161b22" stroke="#f0a500" stroke-width="1.5"/>
  <text x="162" y="447" fill="#f0a500" font-size="9" font-weight="bold" text-anchor="middle" letter-spacing="2">KEY SECURITY GAPS</text>
  <text x="30" y="464" fill="#f0a50099" font-size="8">• No egress filter — ports 80/443/447 open outbound</text>
  <text x="30" y="478" fill="#f0a50099" font-size="8">• No DNS firewall — C2 domains resolve unblocked</text>
  <text x="30" y="492" fill="#f0a50099" font-size="8">• No east-west segmentation — DC ↔ workstations</text>
  <text x="30" y="506" fill="#f0a50099" font-size="8">• No NDR/SIEM — 80 min infection undetected</text>
  <text x="30" y="520" fill="#f0a50099" font-size="8">• No EDR — Trickbot + CS ran freely on endpoints</text>
  <text x="30" y="534" fill="#f0a50099" font-size="8">• Portal: SQLi + IDOR unpatched (Trigger B)</text>
  <text x="30" y="548" fill="#f0a50099" font-size="8">• No WAF protecting customer portal</text>

  <!-- Footer -->
  <rect x="0" y="598" width="900" height="22" fill="#161b22"/>
  <text x="20" y="613" fill="#8b949e" font-size="8">Project KAVACH · Workstream A · A.5 Architecture Proposal · Source: 2021-05-26-Trickbot-infection-with-Cobalt-Strike.pcap</text>
  <text x="880" y="613" fill="#ff4444" font-size="8" text-anchor="end">BEFORE · VULNERABLE STATE</text>

  <!-- Arrow markers -->
  <defs>
    <marker id="arrowRed" markerWidth="8" markerHeight="6" refX="8" refY="3" orient="auto">
      <polygon points="0 0, 8 3, 0 6" fill="#ff4444"/>
    </marker>
    <marker id="arrowGreen" markerWidth="8" markerHeight="6" refX="8" refY="3" orient="auto">
      <polygon points="0 0, 8 3, 0 6" fill="#3fb950"/>
    </marker>
  </defs>

</svg>
