<svg viewBox="0 0 960 680" xmlns="http://www.w3.org/2000/svg" font-family="'Courier New', monospace">

  <defs>
    <marker id="arrowGreen" markerWidth="8" markerHeight="6" refX="8" refY="3" orient="auto">
      <polygon points="0 0, 8 3, 0 6" fill="#3fb950"/>
    </marker>
    <marker id="arrowBlue" markerWidth="8" markerHeight="6" refX="8" refY="3" orient="auto">
      <polygon points="0 0, 8 3, 0 6" fill="#58a6ff"/>
    </marker>
    <marker id="arrowOrange" markerWidth="8" markerHeight="6" refX="8" refY="3" orient="auto">
      <polygon points="0 0, 8 3, 0 6" fill="#f0a500"/>
    </marker>
    <marker id="arrowRed" markerWidth="8" markerHeight="6" refX="8" refY="3" orient="auto">
      <polygon points="0 0, 8 3, 0 6" fill="#ff4444"/>
    </marker>
  </defs>

  <!-- Background -->
  <rect width="960" height="680" fill="#0d1117"/>

  <!-- Title Bar -->
  <rect x="0" y="0" width="960" height="44" fill="#161b22"/>
  <text x="20" y="16" fill="#3fb950" font-size="9" font-weight="bold" letter-spacing="3">WORKSTREAM A · A.5 ARCHITECTURE PROPOSAL</text>
  <text x="20" y="32" fill="#e6edf3" font-size="13" font-weight="bold" letter-spacing="1">MERIDIAN FINSERVE — PROPOSED HARDENED STATE</text>
  <rect x="820" y="8" width="120" height="28" rx="3" fill="#3fb95022" stroke="#3fb950" stroke-width="1"/>
  <text x="880" y="26" fill="#3fb950" font-size="10" font-weight="bold" text-anchor="middle">✓ AFTER</text>

  <!-- ═══════════════════════════════════════ -->
  <!-- LAYER LABELS - Left spine -->
  <!-- ═══════════════════════════════════════ -->
  <rect x="12" y="56" width="56" height="560" rx="3" fill="#161b22" stroke="#30363d" stroke-width="1"/>
  <text x="40" y="200" fill="#58a6ff" font-size="8" font-weight="bold" text-anchor="middle" transform="rotate(-90,40,200)" letter-spacing="3">IDENTITY</text>
  <text x="40" y="320" fill="#f0a500" font-size="8" font-weight="bold" text-anchor="middle" transform="rotate(-90,40,320)" letter-spacing="3">PERIMETER</text>
  <text x="40" y="440" fill="#3fb950" font-size="8" font-weight="bold" text-anchor="middle" transform="rotate(-90,40,440)" letter-spacing="3">SEGMENTATION</text>
  <text x="40" y="570" fill="#a371f7" font-size="8" font-weight="bold" text-anchor="middle" transform="rotate(-90,40,570)" letter-spacing="3">APP · DATA · OBS</text>

  <!-- ═══════════════════════════════════════ -->
  <!-- INTERNET ZONE -->
  <!-- ═══════════════════════════════════════ -->
  <rect x="76" y="56" width="160" height="130" rx="4" fill="#161b22" stroke="#ff444466" stroke-width="1" stroke-dasharray="5,3"/>
  <text x="156" y="72" fill="#ff444466" font-size="8" font-weight="bold" text-anchor="middle" letter-spacing="2">INTERNET</text>
  <rect x="86" y="80" width="140" height="18" rx="2" fill="#ff222211" stroke="#ff444444" stroke-width="1"/>
  <text x="156" y="93" fill="#ff666666" font-size="7" text-anchor="middle">Threat Actors / C2 Infrastructure</text>
  <rect x="86" y="104" width="140" height="18" rx="2" fill="#ff222211" stroke="#ff444444" stroke-width="1"/>
  <text x="156" y="117" fill="#ff666666" font-size="7" text-anchor="middle">antivirusupdaty.com → BLOCKED</text>
  <rect x="86" y="128" width="140" height="18" rx="2" fill="#ff222211" stroke="#ff444444" stroke-width="1"/>
  <text x="156" y="141" fill="#ff666666" font-size="7" text-anchor="middle">192.236.155.230 → BLOCKED</text>
  <rect x="86" y="152" width="140" height="18" rx="2" fill="#ff222211" stroke="#ff444444" stroke-width="1"/>
  <text x="156" y="165" fill="#ff666666" font-size="7" text-anchor="middle">Port 447 outbound → BLOCKED</text>

  <!-- ═══════════════════════════════════════ -->
  <!-- IDENTITY LAYER -->
  <!-- ═══════════════════════════════════════ -->
  <rect x="76" y="196" width="160" height="120" rx="4" fill="#161b22" stroke="#58a6ff" stroke-width="1.5"/>
  <text x="156" y="212" fill="#58a6ff" font-size="8" font-weight="bold" text-anchor="middle" letter-spacing="2">IDENTITY LAYER</text>
  <text x="156" y="224" fill="#58a6ff44" font-size="7" text-anchor="middle">IOC: 4x IP-lookup recon (fr.809,6801)</text>

  <rect x="86" y="228" width="140" height="18" rx="2" fill="#58a6ff11" stroke="#58a6ff" stroke-width="1"/>
  <text x="156" y="241" fill="#58a6ff" font-size="7" text-anchor="middle">SSO + MFA Enforcement</text>

  <rect x="86" y="250" width="140" height="18" rx="2" fill="#58a6ff11" stroke="#58a6ff" stroke-width="1"/>
  <text x="156" y="263" fill="#58a6ff" font-size="7" text-anchor="middle">PAM — Privileged Access Mgmt</text>

  <rect x="86" y="272" width="140" height="18" rx="2" fill="#58a6ff11" stroke="#58a6ff" stroke-width="1"/>
  <text x="156" y="285" fill="#58a6ff" font-size="7" text-anchor="middle">Session Lifetime Controls (8h max)</text>

  <rect x="86" y="294" width="140" height="14" rx="2" fill="#58a6ff08" stroke="#58a6ff44" stroke-width="1"/>
  <text x="156" y="305" fill="#58a6ff66" font-size="6" text-anchor="middle">Effort: M · Trade-off: User friction on re-auth</text>

  <!-- ═══════════════════════════════════════ -->
  <!-- PERIMETER LAYER -->
  <!-- ═══════════════════════════════════════ -->
  <rect x="76" y="326" width="160" height="150" rx="4" fill="#161b22" stroke="#f0a500" stroke-width="1.5"/>
  <text x="156" y="342" fill="#f0a500" font-size="8" font-weight="bold" text-anchor="middle" letter-spacing="2">PERIMETER LAYER</text>
  <text x="156" y="354" fill="#f0a50044" font-size="7" text-anchor="middle">IOC: port 447 / C2 beaconing (fr.11430)</text>

  <rect x="86" y="358" width="140" height="18" rx="2" fill="#f0a50011" stroke="#f0a500" stroke-width="1"/>
  <text x="156" y="371" fill="#f0a500" font-size="7" text-anchor="middle">Egress Filter: allow 80/443 to allowlist only</text>

  <rect x="86" y="380" width="140" height="18" rx="2" fill="#f0a50011" stroke="#f0a500" stroke-width="1"/>
  <text x="156" y="393" fill="#f0a500" font-size="7" text-anchor="middle">DNS Firewall: block C2 domains</text>

  <rect x="86" y="402" width="140" height="18" rx="2" fill="#f0a50011" stroke="#f0a500" stroke-width="1"/>
  <text x="156" y="415" fill="#f0a500" font-size="7" text-anchor="middle">WAF in front of Customer Portal</text>

  <rect x="86" y="424" width="140" height="18" rx="2" fill="#f0a50011" stroke="#f0a500" stroke-width="1"/>
  <text x="156" y="437" fill="#f0a500" font-size="7" text-anchor="middle">Block non-standard ports (447, etc.)</text>

  <rect x="86" y="446" width="140" height="14" rx="2" fill="#f0a50008" stroke="#f0a50044" stroke-width="1"/>
  <text x="156" y="457" fill="#f0a50066" font-size="6" text-anchor="middle">Effort: S–M · Trade-off: Some SaaS breakage</text>

  <!-- ═══════════════════════════════════════ -->
  <!-- SEGMENTATION LAYER -->
  <!-- ═══════════════════════════════════════ -->
  <rect x="76" y="486" width="160" height="128" rx="4" fill="#161b22" stroke="#3fb950" stroke-width="1.5"/>
  <text x="156" y="502" fill="#3fb950" font-size="8" font-weight="bold" text-anchor="middle" letter-spacing="2">SEGMENTATION</text>
  <text x="156" y="514" fill="#3fb95044" font-size="7" text-anchor="middle">IOC: SMB east-west DC→WS (fr.11100)</text>

  <rect x="86" y="518" width="140" height="18" rx="2" fill="#3fb95011" stroke="#3fb950" stroke-width="1"/>
  <text x="156" y="531" fill="#3fb950" font-size="7" text-anchor="middle">East-West Microsegmentation (VLANs)</text>

  <rect x="86" y="540" width="140" height="18" rx="2" fill="#3fb95011" stroke="#3fb950" stroke-width="1"/>
  <text x="156" y="553" fill="#3fb950" font-size="7" text-anchor="middle">Jump-Host for DC Admin Access</text>

  <rect x="86" y="562" width="140" height="18" rx="2" fill="#3fb95011" stroke="#3fb950" stroke-width="1"/>
  <text x="156" y="575" fill="#3fb950" font-size="7" text-anchor="middle">SMB blocked WS↔WS / WS↔DC</text>

  <rect x="86" y="584" width="140" height="14" rx="2" fill="#3fb95008" stroke="#3fb95044" stroke-width="1"/>
  <text x="156" y="595" fill="#3fb95066" font-size="6" text-anchor="middle">Effort: L · Trade-off: Legacy app compatibility</text>

  <!-- ═══════════════════════════════════════ -->
  <!-- INTERNAL NETWORK - HARDENED -->
  <!-- ═══════════════════════════════════════ -->
  <rect x="246" y="56" width="420" height="560" rx="4" fill="#0d1117" stroke="#30363d" stroke-width="1.5"/>
  <text x="456" y="74" fill="#e6edf3" font-size="10" font-weight="bold" text-anchor="middle" letter-spacing="2">MERIDIAN FINSERVE INTERNAL NETWORK · HARDENED</text>

  <!-- VLAN ZONES within internal -->

  <!-- VLAN: Server Segment -->
  <rect x="258" y="82" width="196" height="220" rx="3" fill="#161b22" stroke="#3fb950" stroke-width="1.5"/>
  <text x="356" y="97" fill="#3fb950" font-size="8" font-weight="bold" text-anchor="middle" letter-spacing="1">VLAN 10 · SERVER SEGMENT</text>
  <text x="356" y="108" fill="#3fb95066" font-size="7" text-anchor="middle">Isolated · No direct WS access</text>

  <!-- DC - hardened -->
  <rect x="268" y="114" width="176" height="38" rx="3" fill="#3fb95011" stroke="#3fb950" stroke-width="1.5"/>
  <text x="356" y="129" fill="#3fb950" font-size="9" font-weight="bold" text-anchor="middle">VICTORYPUNK-DC</text>
  <text x="356" y="142" fill="#3fb950" font-size="7" text-anchor="middle">10.5.26.4 · Access via Jump-Host only</text>

  <!-- Jump host -->
  <rect x="268" y="158" width="176" height="28" rx="3" fill="#58a6ff11" stroke="#58a6ff" stroke-width="1"/>
  <text x="356" y="170" fill="#58a6ff" font-size="8" text-anchor="middle">Jump-Host / Bastion</text>
  <text x="356" y="181" fill="#58a6ff66" font-size="7" text-anchor="middle">All admin sessions logged</text>

  <!-- App servers -->
  <rect x="268" y="192" width="84" height="28" rx="3" fill="#1c2128" stroke="#8b949e" stroke-width="1"/>
  <text x="310" y="204" fill="#c9d1d9" font-size="7" text-anchor="middle">App Servers</text>
  <text x="310" y="214" fill="#8b949e" font-size="6" text-anchor="middle">Encrypted at rest</text>

  <rect x="360" y="192" width="84" height="28" rx="3" fill="#1c2128" stroke="#8b949e" stroke-width="1"/>
  <text x="402" y="204" fill="#c9d1d9" font-size="7" text-anchor="middle">DB Servers</text>
  <text x="402" y="214" fill="#8b949e" font-size="6" text-anchor="middle">Tokenised PII</text>

  <!-- EDR + NDR labels -->
  <rect x="268" y="226" width="176" height="18" rx="2" fill="#a371f711" stroke="#a371f7" stroke-width="1"/>
  <text x="356" y="239" fill="#a371f7" font-size="7" text-anchor="middle">EDR on all servers · NSM (Suricata/Zeek)</text>
  <rect x="268" y="248" width="176" height="18" rx="2" fill="#a371f711" stroke="#a371f7" stroke-width="1"/>
  <text x="356" y="261" fill="#a371f7" font-size="7" text-anchor="middle">All logs → SIEM · Baseline alerting</text>
  <rect x="268" y="270" width="176" height="22" rx="2" fill="#3fb95011" stroke="#3fb950" stroke-width="1"/>
  <text x="356" y="285" fill="#3fb950" font-size="7" text-anchor="middle">✓ East-West traffic: default DENY</text>

  <!-- VLAN: Workstation Segment -->
  <rect x="462" y="82" width="196" height="220" rx="3" fill="#161b22" stroke="#58a6ff" stroke-width="1.5"/>
  <text x="560" y="97" fill="#58a6ff" font-size="8" font-weight="bold" text-anchor="middle" letter-spacing="1">VLAN 20 · WORKSTATION SEGMENT</text>
  <text x="560" y="108" fill="#58a6ff66" font-size="7" text-anchor="middle">Cannot reach Server VLAN directly</text>

  <!-- Workstations - now isolated -->
  <rect x="472" y="114" width="88" height="28" rx="3" fill="#1c2128" stroke="#58a6ff" stroke-width="1"/>
  <text x="516" y="126" fill="#c9d1d9" font-size="7" text-anchor="middle">DESKTOP-.130</text>
  <text x="516" y="136" fill="#8b949e" font-size="6" text-anchor="middle">EDR Protected</text>

  <rect x="564" y="114" width="88" height="28" rx="3" fill="#1c2128" stroke="#58a6ff" stroke-width="1"/>
  <text x="608" y="126" fill="#c9d1d9" font-size="7" text-anchor="middle">DESKTOP-.132</text>
  <text x="608" y="136" fill="#8b949e" font-size="6" text-anchor="middle">EDR Protected</text>

  <rect x="472" y="150" width="88" height="28" rx="3" fill="#1c2128" stroke="#58a6ff" stroke-width="1"/>
  <text x="516" y="162" fill="#c9d1d9" font-size="7" text-anchor="middle">DESKTOP-.134</text>
  <text x="516" y="172" fill="#8b949e" font-size="6" text-anchor="middle">EDR Protected</text>

  <rect x="564" y="150" width="88" height="28" rx="3" fill="#1c2128" stroke="#58a6ff" stroke-width="1"/>
  <text x="608" y="162" fill="#c9d1d9" font-size="7" text-anchor="middle">DESKTOP-.136</text>
  <text x="608" y="172" fill="#8b949e" font-size="6" text-anchor="middle">EDR Protected</text>

  <rect x="472" y="186" width="88" height="28" rx="3" fill="#1c2128" stroke="#58a6ff" stroke-width="1"/>
  <text x="516" y="198" fill="#c9d1d9" font-size="7" text-anchor="middle">DESKTOP-.138</text>
  <text x="516" y="208" fill="#8b949e" font-size="6" text-anchor="middle">EDR Protected</text>

  <rect x="564" y="186" width="88" height="28" rx="3" fill="#1c2128" stroke="#58a6ff" stroke-width="1"/>
  <text x="608" y="198" fill="#c9d1d9" font-size="7" text-anchor="middle">DESKTOP-.140</text>
  <text x="608" y="208" fill="#8b949e" font-size="6" text-anchor="middle">EDR Protected</text>

  <!-- SMB blocked marker -->
  <rect x="472" y="220" width="180" height="20" rx="2" fill="#ff222211" stroke="#ff4444" stroke-width="1"/>
  <text x="562" y="234" fill="#ff6666" font-size="7" text-anchor="middle">✗ SMB to Server VLAN: BLOCKED</text>
  <rect x="472" y="244" width="180" height="20" rx="2" fill="#ff222211" stroke="#ff4444" stroke-width="1"/>
  <text x="562" y="258" fill="#ff6666" font-size="7" text-anchor="middle">✗ WS-to-WS SMB: BLOCKED</text>
  <rect x="472" y="268" width="180" height="24" rx="2" fill="#a371f711" stroke="#a371f7" stroke-width="1"/>
  <text x="562" y="284" fill="#a371f7" font-size="7" text-anchor="middle">NDR monitors all lateral flows</text>

  <!-- VLAN: DMZ Portal -->
  <rect x="258" y="314" width="196" height="160" rx="3" fill="#161b22" stroke="#f0a500" stroke-width="1.5"/>
  <text x="356" y="330" fill="#f0a500" font-size="8" font-weight="bold" text-anchor="middle" letter-spacing="1">VLAN 30 · DMZ · PORTAL</text>

  <rect x="268" y="338" width="176" height="28" rx="3" fill="#f0a50011" stroke="#f0a500" stroke-width="1"/>
  <text x="356" y="350" fill="#f0a500" font-size="8" text-anchor="middle">WAF (OWASP CRS Rules)</text>
  <text x="356" y="362" fill="#f0a50066" font-size="7" text-anchor="middle">SQLi / XSS / IDOR signatures active</text>

  <rect x="268" y="372" width="84" height="28" rx="3" fill="#1c2128" stroke="#3fb950" stroke-width="1"/>
  <text x="310" y="384" fill="#3fb950" font-size="7" text-anchor="middle">Customer</text>
  <text x="310" y="394" fill="#3fb950" font-size="7" text-anchor="middle">Portal ✓</text>

  <rect x="360" y="372" width="84" height="28" rx="3" fill="#1c2128" stroke="#3fb950" stroke-width="1"/>
  <text x="402" y="384" fill="#3fb950" font-size="7" text-anchor="middle">Partner</text>
  <text x="402" y="394" fill="#3fb950" font-size="7" text-anchor="middle">Portal ✓</text>

  <rect x="268" y="406" width="176" height="18" rx="2" fill="#3fb95011" stroke="#3fb950" stroke-width="1"/>
  <text x="356" y="419" fill="#3fb950" font-size="7" text-anchor="middle">✓ Parameterised queries · Per-request authZ</text>
  <rect x="268" y="428" width="176" height="18" rx="2" fill="#3fb95011" stroke="#3fb950" stroke-width="1"/>
  <text x="356" y="441" fill="#3fb950" font-size="7" text-anchor="middle">✓ Output encoding · CSP headers</text>
  <rect x="268" y="450" width="176" height="18" rx="2" fill="#a371f711" stroke="#a371f7" stroke-width="1"/>
  <text x="356" y="463" fill="#a371f7" font-size="7" text-anchor="middle">App logs → SIEM · Rate limiting on APIs</text>

  <!-- VLAN: Observability -->
  <rect x="462" y="314" width="196" height="160" rx="3" fill="#161b22" stroke="#a371f7" stroke-width="1.5"/>
  <text x="560" y="330" fill="#a371f7" font-size="8" font-weight="bold" text-anchor="middle" letter-spacing="1">OBSERVABILITY + RESPONSE</text>
  <text x="560" y="342" fill="#a371f766" font-size="7" text-anchor="middle">IOC: 80 min undetected (fr.1 → fr.26644)</text>

  <rect x="472" y="350" width="176" height="18" rx="2" fill="#a371f711" stroke="#a371f7" stroke-width="1"/>
  <text x="560" y="363" fill="#a371f7" font-size="7" text-anchor="middle">NSM: Suricata + Zeek (full capture)</text>

  <rect x="472" y="372" width="176" height="18" rx="2" fill="#a371f711" stroke="#a371f7" stroke-width="1"/>
  <text x="560" y="385" fill="#a371f7" font-size="7" text-anchor="middle">SIEM: Centralised log aggregation</text>

  <rect x="472" y="394" width="176" height="18" rx="2" fill="#a371f711" stroke="#a371f7" stroke-width="1"/>
  <text x="560" y="407" fill="#a371f7" font-size="7" text-anchor="middle">Alert: beaconing pattern detection</text>

  <rect x="472" y="416" width="176" height="18" rx="2" fill="#a371f711" stroke="#a371f7" stroke-width="1"/>
  <text x="560" y="429" fill="#a371f7" font-size="7" text-anchor="middle">Alert: non-std port outbound (447)</text>

  <rect x="472" y="438" width="176" height="18" rx="2" fill="#a371f711" stroke="#a371f7" stroke-width="1"/>
  <text x="560" y="451" fill="#a371f7" font-size="7" text-anchor="middle">Runbook: Isolation + Post-mortem</text>

  <rect x="472" y="460" width="176" height="14" rx="2" fill="#a371f708" stroke="#a371f744" stroke-width="1"/>
  <text x="560" y="471" fill="#a371f766" font-size="6" text-anchor="middle">Effort: M · Trade-off: Log storage cost</text>

  <!-- CO-LOCATED DC + CLOUD at bottom -->
  <rect x="258" y="486" width="196" height="110" rx="3" fill="#161b22" stroke="#8b949e" stroke-width="1.5"/>
  <text x="356" y="502" fill="#8b949e" font-size="8" font-weight="bold" text-anchor="middle" letter-spacing="1">CO-LOCATED DC · HARDENED</text>

  <rect x="268" y="510" width="84" height="24" rx="2" fill="#1c2128" stroke="#3fb950" stroke-width="1"/>
  <text x="310" y="520" fill="#3fb950" font-size="7" text-anchor="middle">Servers</text>
  <text x="310" y="530" fill="#3fb95066" font-size="6" text-anchor="middle">Encrypted ✓</text>

  <rect x="360" y="510" width="84" height="24" rx="2" fill="#1c2128" stroke="#3fb950" stroke-width="1"/>
  <text x="402" y="520" fill="#3fb950" font-size="7" text-anchor="middle">DB</text>
  <text x="402" y="530" fill="#3fb95066" font-size="6" text-anchor="middle">Tokenised ✓</text>

  <rect x="268" y="540" width="176" height="16" rx="2" fill="#3fb95011" stroke="#3fb950" stroke-width="1"/>
  <text x="356" y="552" fill="#3fb950" font-size="7" text-anchor="middle">✓ Key separation · HSM for card data</text>

  <rect x="268" y="560" width="176" height="28" rx="2" fill="#a371f711" stroke="#a371f7" stroke-width="1"/>
  <text x="356" y="572" fill="#a371f7" font-size="7" text-anchor="middle">Full packet capture retention (30 days)</text>
  <text x="356" y="582" fill="#a371f766" font-size="6" text-anchor="middle">IOC evidence preservation</text>

  <rect x="462" y="486" width="196" height="110" rx="3" fill="#161b22" stroke="#8b949e" stroke-width="1.5"/>
  <text x="560" y="502" fill="#8b949e" font-size="8" font-weight="bold" text-anchor="middle" letter-spacing="1">PUBLIC CLOUD · HARDENED</text>

  <rect x="472" y="510" width="176" height="18" rx="2" fill="#3fb95011" stroke="#3fb950" stroke-width="1"/>
  <text x="560" y="523" fill="#3fb950" font-size="7" text-anchor="middle">✓ Egress controls on cloud workloads</text>

  <rect x="472" y="532" width="176" height="18" rx="2" fill="#58a6ff11" stroke="#58a6ff" stroke-width="1"/>
  <text x="560" y="545" fill="#58a6ff" font-size="7" text-anchor="middle">Cloud CSPM posture monitoring</text>

  <rect x="472" y="554" width="176" height="18" rx="2" fill="#a371f711" stroke="#a371f7" stroke-width="1"/>
  <text x="560" y="567" fill="#a371f7" font-size="7" text-anchor="middle">Cloud logs → SIEM pipeline</text>

  <rect x="472" y="576" width="176" height="18" rx="2" fill="#3fb95011" stroke="#3fb950" stroke-width="1"/>
  <text x="560" y="589" fill="#3fb950" font-size="7" text-anchor="middle">IaC security scanning (Semgrep)</text>

  <!-- RIGHT PANEL: Diff Summary -->
  <rect x="676" y="56" width="268" height="560" rx="4" fill="#161b22" stroke="#30363d" stroke-width="1.5"/>
  <text x="810" y="74" fill="#e6edf3" font-size="9" font-weight="bold" text-anchor="middle" letter-spacing="2">ARCHITECTURE DIFF</text>
  <text x="810" y="86" fill="#8b949e" font-size="7" text-anchor="middle">What changed · Why it matters</text>

  <!-- Diff items -->
  <rect x="686" y="96" width="248" height="40" rx="3" fill="#ff222211" stroke="#ff444466" stroke-width="1"/>
  <text x="810" y="109" fill="#ff6666" font-size="7" font-weight="bold" text-anchor="middle">REMOVED</text>
  <text x="810" y="121" fill="#ff666688" font-size="7" text-anchor="middle">Port 447 outbound / No egress filter</text>
  <text x="810" y="131" fill="#ff666688" font-size="7" text-anchor="middle">No DNS firewall / No WAF</text>

  <rect x="686" y="142" width="248" height="40" rx="3" fill="#3fb95011" stroke="#3fb95066" stroke-width="1"/>
  <text x="810" y="155" fill="#3fb950" font-size="7" font-weight="bold" text-anchor="middle">ADDED</text>
  <text x="810" y="167" fill="#3fb95088" font-size="7" text-anchor="middle">Egress allowlist · DNS firewall · WAF</text>
  <text x="810" y="177" fill="#3fb95088" font-size="7" text-anchor="middle">VLAN microsegmentation · Jump-host</text>

  <!-- Layer by layer diff -->
  <text x="686" y="200" fill="#58a6ff" font-size="8" font-weight="bold">IDENTITY</text>
  <text x="686" y="212" fill="#8b949e" font-size="7">Before: No MFA, no PAM</text>
  <text x="686" y="222" fill="#3fb950" font-size="7">After:  SSO + MFA + PAM + session limits</text>
  <line x1="686" y1="228" x2="934" y2="228" stroke="#30363d" stroke-width="1"/>

  <text x="686" y="242" fill="#f0a500" font-size="8" font-weight="bold">PERIMETER</text>
  <text x="686" y="254" fill="#8b949e" font-size="7">Before: All ports open, no DNS FW, no WAF</text>
  <text x="686" y="264" fill="#3fb950" font-size="7">After:  Egress allowlist + DNS FW + WAF</text>
  <line x1="686" y1="270" x2="934" y2="270" stroke="#30363d" stroke-width="1"/>

  <text x="686" y="284" fill="#3fb950" font-size="8" font-weight="bold">SEGMENTATION</text>
  <text x="686" y="296" fill="#8b949e" font-size="7">Before: Flat LAN, DC → WS SMB free</text>
  <text x="686" y="306" fill="#3fb950" font-size="7">After:  VLAN 10/20/30 + default DENY east-west</text>
  <line x1="686" y1="312" x2="934" y2="312" stroke="#30363d" stroke-width="1"/>

  <text x="686" y="326" fill="#e6edf3" font-size="8" font-weight="bold">APPLICATION</text>
  <text x="686" y="338" fill="#8b949e" font-size="7">Before: SQLi, IDOR, no output encoding</text>
  <text x="686" y="348" fill="#3fb950" font-size="7">After:  Parameterised queries + authZ + CSP</text>
  <line x1="686" y1="354" x2="934" y2="354" stroke="#30363d" stroke-width="1"/>

  <text x="686" y="368" fill="#e6edf3" font-size="8" font-weight="bold">DATA</text>
  <text x="686" y="380" fill="#8b949e" font-size="7">Before: No at-rest encryption, no tokenisation</text>
  <text x="686" y="390" fill="#3fb950" font-size="7">After:  AES-256 at rest + tokenised PII + HSM</text>
  <line x1="686" y1="396" x2="934" y2="396" stroke="#30363d" stroke-width="1"/>

  <text x="686" y="410" fill="#a371f7" font-size="8" font-weight="bold">OBSERVABILITY</text>
  <text x="686" y="422" fill="#8b949e" font-size="7">Before: No NDR, no SIEM, 80 min blind</text>
  <text x="686" y="432" fill="#3fb950" font-size="7">After:  Suricata + Zeek + SIEM + alerts</text>
  <line x1="686" y1="438" x2="934" y2="438" stroke="#30363d" stroke-width="1"/>

  <text x="686" y="452" fill="#e6edf3" font-size="8" font-weight="bold">RESPONSE</text>
  <text x="686" y="464" fill="#8b949e" font-size="7">Before: No runbook, no isolation playbook</text>
  <text x="686" y="474" fill="#3fb950" font-size="7">After:  Runbook + isolation playbook + retro</text>
  <line x1="686" y1="480" x2="934" y2="480" stroke="#30363d" stroke-width="1"/>

  <!-- Risk reduction score -->
  <rect x="686" y="490" width="248" height="60" rx="3" fill="#3fb95011" stroke="#3fb950" stroke-width="1.5"/>
  <text x="810" y="506" fill="#3fb950" font-size="8" font-weight="bold" text-anchor="middle">RISK REDUCTION SUMMARY</text>
  <text x="810" y="520" fill="#3fb95088" font-size="7" text-anchor="middle">C2 beaconing: BLOCKED at perimeter</text>
  <text x="810" y="532" fill="#3fb95088" font-size="7" text-anchor="middle">Lateral movement: CONTAINED (VLANs)</text>
  <text x="810" y="544" fill="#3fb95088" font-size="7" text-anchor="middle">Detection time: 80 min → &lt;5 min (SIEM alert)</text>

  <!-- Effort legend -->
  <rect x="686" y="558" width="248" height="52" rx="3" fill="#161b22" stroke="#30363d" stroke-width="1"/>
  <text x="810" y="572" fill="#8b949e" font-size="7" font-weight="bold" text-anchor="middle">IMPLEMENTATION EFFORT KEY</text>
  <text x="696" y="586" fill="#3fb950" font-size="7">S = Days (config change)</text>
  <text x="696" y="598" fill="#f0a500" font-size="7">M = Weeks (tool deployment)</text>
  <text x="696" y="610" fill="#ff6666" font-size="7">L = Months (arch change)</text>

  <!-- Flow arrows: Internet to Perimeter - blocked -->
  <line x1="236" y1="130" x2="246" y2="200" stroke="#ff4444" stroke-width="1.5" stroke-dasharray="4,2" marker-end="url(#arrowRed)"/>
  <text x="238" y="170" fill="#ff4444" font-size="7" text-anchor="middle">BLOCKED</text>

  <!-- Flow: Perimeter to Internal - allowed/controlled -->
  <line x1="236" y1="390" x2="258" y2="400" stroke="#3fb950" stroke-width="1.2" marker-end="url(#arrowGreen)"/>
  <text x="245" y="372" fill="#3fb950" font-size="6" text-anchor="middle">FILTERED</text>

  <!-- Footer -->
  <rect x="0" y="658" width="960" height="22" fill="#161b22"/>
  <text x="20" y="673" fill="#8b949e" font-size="8">Project KAVACH · Workstream A · A.5 Architecture Proposal · Hardened against Trickbot + Cobalt Strike IOCs</text>
  <text x="940" y="673" fill="#3fb950" font-size="8" text-anchor="end">AFTER · HARDENED STATE</text>

</svg>
